<svg width="24" height="24" viewBox="0 0 24 24" fill="none" xmlns="http://www.w3.org/2000/svg">
<path d="M11.75 0C18.2393 0 23.5 5.26065 23.5 11.75C23.5 18.2393 18.2393 23.5 11.75 23.5C8.3893 23.5 5.25507 22.0801 3.04199 19.6387C2.76423 19.3319 2.78738 18.8582 3.09375 18.5801C3.40064 18.3019 3.87513 18.3249 4.15332 18.6318C6.08497 20.7628 8.81716 22 11.75 22C17.4109 22 22 17.4109 22 11.75C22 6.08908 17.4109 1.5 11.75 1.5C10.3855 1.50001 9.05941 1.76641 7.82715 2.27734C6.5839 2.79287 5.45364 3.55027 4.50195 4.50195C3.7702 5.23372 3.15328 6.07142 2.67285 6.98438L6.35156 6.98535C6.76571 6.98543 7.10156 7.32119 7.10156 7.73535C7.10138 8.11488 6.81908 8.42887 6.45312 8.47852L6.35156 8.48535H0.75C0.370359 8.48535 0.0565673 8.20291 0.00683594 7.83691L0 7.73535V2.25C0 1.83579 0.335786 1.5 0.75 1.5C1.1297 1.5 1.4435 1.78236 1.49316 2.14844L1.5 2.25L1.49902 6.00391C2.02545 5.06666 2.67897 4.20386 3.44141 3.44141C4.53166 2.35115 5.82634 1.48279 7.25195 0.891602C8.66563 0.305404 10.1873 1.28063e-05 11.75 0ZM11.6689 4.03809C12.0484 4.03825 12.3623 4.31974 12.4121 4.68555L12.4189 4.78809V12.0605L8.63672 15.8418C8.34383 16.1347 7.86907 16.1347 7.57617 15.8418C7.31016 15.5755 7.28613 15.1587 7.50391 14.8652L7.57617 14.7812L10.9189 11.4395V4.78809C10.9189 4.37387 11.2547 4.03809 11.6689 4.03809Z" fill="#262626"/>
</svg>
