<svg width="25" height="24" viewBox="0 0 25 24" fill="none" xmlns="http://www.w3.org/2000/svg">
<path d="M3.08692 17.6843C3.15074 17.5315 3.32571 17.4595 3.47852 17.5231C3.55144 17.5536 3.6102 17.6114 3.64063 17.6843L4.42383 19.5612L6.45117 19.7263C6.61617 19.7398 6.73888 19.8845 6.72559 20.0495C6.71919 20.1282 6.68193 20.2012 6.62207 20.2526L5.0791 21.5778L5.54883 23.5573C5.58703 23.7184 5.48722 23.8803 5.32617 23.9187C5.24929 23.9369 5.16807 23.9236 5.10059 23.8825L3.36328 22.8249L1.62598 23.8825C1.48453 23.9687 1.3001 23.9243 1.21387 23.7829C1.17277 23.7155 1.15952 23.6342 1.17774 23.5573L1.64746 21.5778L0.104495 20.2526C-0.02098 20.1447 -0.0355943 19.9554 0.0722685 19.8298C0.123682 19.7699 0.196767 19.7327 0.275393 19.7263L2.30274 19.5612L3.08692 17.6843ZM23.3633 20.2712C23.7775 20.2712 24.1133 20.607 24.1133 21.0212C24.1131 21.4007 23.8308 21.7147 23.4648 21.7644L23.3633 21.7712H9.86328C9.44924 21.7712 9.11351 21.4352 9.11328 21.0212C9.11328 20.6415 9.39565 20.3277 9.76172 20.278L9.86328 20.2712H23.3633ZM3.08692 8.93428C3.15074 8.78154 3.32571 8.70953 3.47852 8.77314C3.55144 8.80357 3.6102 8.86135 3.64063 8.93428L4.42383 10.8112L6.45117 10.9763C6.61617 10.9898 6.73888 11.1345 6.72559 11.2995C6.71919 11.3782 6.68193 11.4512 6.62207 11.5026L5.0791 12.8278L5.54883 14.8073C5.58703 14.9684 5.48722 15.1303 5.32617 15.1687C5.24929 15.1869 5.16807 15.1736 5.10059 15.1325L3.36328 14.0749L1.62598 15.1325C1.48453 15.2187 1.3001 15.1743 1.21387 15.0329C1.17277 14.9655 1.15952 14.8842 1.17774 14.8073L1.64746 12.8278L0.104495 11.5026C-0.02098 11.3947 -0.0355943 11.2054 0.0722685 11.0798C0.123682 11.0199 0.196767 10.9827 0.275393 10.9763L2.30274 10.8112L3.08692 8.93428ZM23.3633 11.5212C23.7775 11.5212 24.1133 11.857 24.1133 12.2712C24.1131 12.6507 23.8308 12.9647 23.4648 13.0144L23.3633 13.0212H9.86328C9.44924 13.0212 9.11351 12.6852 9.11328 12.2712C9.11328 11.8915 9.39565 11.5777 9.76172 11.528L9.86328 11.5212H23.3633ZM3.08692 0.184276C3.15074 0.0315376 3.32571 -0.0404726 3.47852 0.0231435C3.55144 0.0535745 3.6102 0.111351 3.64063 0.184276L4.42383 2.06123L6.45117 2.22627C6.61617 2.23976 6.73888 2.38451 6.72559 2.54951C6.71919 2.6282 6.68193 2.70117 6.62207 2.75264L5.0791 4.07783L5.54883 6.05732C5.58703 6.21843 5.48722 6.38029 5.32617 6.41865C5.24929 6.4369 5.16807 6.42363 5.10059 6.38252L3.36328 5.3249L1.62598 6.38252C1.48453 6.46868 1.3001 6.42429 1.21387 6.28291C1.17277 6.21545 1.15952 6.13418 1.17774 6.05732L1.64746 4.07783L0.104495 2.75264C-0.02098 2.64467 -0.0355943 2.45541 0.0722685 2.32978C0.123682 2.26994 0.196767 2.23274 0.275393 2.22627L2.30274 2.06123L3.08692 0.184276ZM23.3633 2.77119C23.7775 2.77119 24.1133 3.10698 24.1133 3.52119C24.1131 3.9007 23.8308 4.21471 23.4648 4.26435L23.3633 4.27119H9.86328C9.44924 4.27115 9.11351 3.93519 9.11328 3.52119C9.11328 3.14149 9.39565 2.82769 9.76172 2.77803L9.86328 2.77119H23.3633Z" fill="#262626"/>
</svg>
