<svg width="25" height="24" viewBox="0 0 25 24" fill="none" xmlns="http://www.w3.org/2000/svg">
<path d="M18.7236 14.8301C21.624 14.8301 23.989 17.8425 24.1055 21.6162L24.1094 21.9082V22.9189C24.1094 23.4774 23.7648 23.9297 23.3398 23.9297C22.9506 23.9294 22.6292 23.5497 22.5781 23.0566L22.5713 22.9189V21.9082C22.5713 19.2061 20.9575 16.999 18.9277 16.8594L18.7236 16.8525H13.5938C11.5375 16.8526 9.85817 18.9723 9.75195 21.6396L9.74609 21.9082V22.9189C9.74609 23.4772 9.4023 23.9294 8.97754 23.9297C8.58812 23.9297 8.26595 23.5499 8.21484 23.0566L8.20801 22.9189V21.9082C8.20801 18.0969 10.5003 14.9889 13.3721 14.8359L13.5938 14.8301H18.7236ZM4.36035 6.06641C4.74978 6.06646 5.07201 6.44707 5.12305 6.94043L5.12988 7.07812V10.7852H7.95117C8.34062 10.7852 8.66286 11.1658 8.71387 11.6592L8.7207 11.7969C8.7206 12.3086 8.43111 12.7318 8.05566 12.7988L7.95117 12.8076H5.12988V16.5156C5.12975 17.0273 4.84028 17.4506 4.46484 17.5176L4.36035 17.5264C3.9708 17.5264 3.64861 17.1459 3.59766 16.6523L3.59082 16.5156V12.8076H0.769531C0.379985 12.8076 0.0577868 12.4271 0.00683594 11.9336L0 11.7969C0 11.285 0.289489 10.8619 0.665039 10.7949L0.769531 10.7852H3.59082V7.07812C3.59082 6.61288 3.82973 6.22037 4.15527 6.10254L4.25586 6.07617L4.36035 6.06641ZM16.1582 0C18.8496 0 21.0322 2.86753 21.0322 6.4043C21.0321 9.94088 18.8495 12.8076 16.1582 12.8076C13.4671 12.8073 11.2853 9.94068 11.2852 6.4043C11.2852 2.86773 13.467 0.000326834 16.1582 0ZM16.1582 2.02246C14.3169 2.02278 12.8242 3.9846 12.8242 6.4043C12.8244 8.82384 14.317 10.7848 16.1582 10.7852C17.9996 10.7852 19.493 8.82404 19.4932 6.4043C19.4932 3.9844 17.9997 2.02246 16.1582 2.02246Z" fill="#262626"/>
</svg>
