<svg width="22" height="24" viewBox="0 0 22 24" fill="none" xmlns="http://www.w3.org/2000/svg">
<path d="M10.2998 0.285839C10.6886 -0.0952795 11.3114 -0.0952795 11.7002 0.285839L21.7002 10.0866C21.8921 10.2747 22 10.5328 22 10.8015V22.8806C22 23.126 21.8231 23.3304 21.5898 23.3728L21.5 23.3806H13.5C13.2239 23.3805 13 23.1567 13 22.8806V17.3806L12.9951 17.031C12.9555 15.5966 12.6344 14.4711 11.1768 14.3864L11 14.3806C9.40232 14.3806 9.09613 15.63 9.00488 17.2048L9 17.3806V22.8806C8.99998 23.1567 8.77613 23.3805 8.5 23.3806H0.5C0.254676 23.3806 0.0503132 23.2044 0.0078125 22.9714L0 22.8806V10.8015C0 10.5328 0.107915 10.2747 0.299805 10.0866L10.2998 0.285839ZM1.5 11.0114V21.8806H7.5L7.50098 17.3376L7.50781 17.1179C7.66209 14.4557 8.55141 12.8811 11.043 12.8815L11.2627 12.8884C13.5419 13.0204 14.4281 14.5815 14.4951 17.0114L14.5 17.3806V21.8806H20.5V11.0114L11 1.6999L1.5 11.0114Z" fill="#262626"/>
</svg>
