<svg width="24" height="24" viewBox="0 0 24 24" fill="none" xmlns="http://www.w3.org/2000/svg">
<path d="M0.75 15C1.1297 15 1.4435 15.2824 1.49316 15.6484L1.5 15.75V18.75C1.5 20.483 2.85637 21.8994 4.56543 21.9951L4.75 22H7.75C8.16421 22 8.5 22.3358 8.5 22.75C8.5 23.1297 8.21764 23.4435 7.85156 23.4932L7.75 23.5H4.75C2.19963 23.5 0.118699 21.49 0.00488281 18.9678L0 18.75V15.75C0 15.3358 0.335786 15 0.75 15ZM22.75 15C23.1297 15 23.4435 15.2824 23.4932 15.6484L23.5 15.75V18.75C23.5 21.3004 21.49 23.3813 18.9678 23.4951L18.75 23.5H15.75C15.3358 23.5 15 23.1642 15 22.75C15 22.3703 15.2824 22.0565 15.6484 22.0068L15.75 22H18.75C20.483 22 21.8994 20.6436 21.9951 18.9346L22 18.75V15.75C22 15.3358 22.3358 15 22.75 15ZM14.25 6.5C15.7688 6.5 17 7.73122 17 9.25V14.25C17 15.7688 15.7688 17 14.25 17H9.25C7.73122 17 6.5 15.7688 6.5 14.25V9.25C6.5 7.73122 7.73122 6.5 9.25 6.5H14.25ZM9.25 8C8.55964 8 8 8.55964 8 9.25V14.25C8 14.9404 8.55964 15.5 9.25 15.5H14.25C14.9404 15.5 15.5 14.9404 15.5 14.25V9.25C15.5 8.55964 14.9404 8 14.25 8H9.25ZM7.75 0C8.16421 0 8.5 0.335786 8.5 0.75C8.5 1.1297 8.21764 1.4435 7.85156 1.49316L7.75 1.5H4.75C3.01701 1.5 1.60056 2.85637 1.50488 4.56543L1.5 4.75V7.75C1.5 8.16421 1.16421 8.5 0.75 8.5C0.370304 8.5 0.0564984 8.21764 0.00683594 7.85156L0 7.75V4.75C0 2.19963 2.00996 0.118699 4.53223 0.00488281L4.75 0H7.75ZM18.75 0C21.3004 0 23.3813 2.00996 23.4951 4.53223L23.5 4.75V7.75C23.5 8.16421 23.1642 8.5 22.75 8.5C22.3703 8.5 22.0565 8.21764 22.0068 7.85156L22 7.75V4.75C22 3.01701 20.6436 1.60056 18.9346 1.50488L18.75 1.5H15.75C15.3358 1.5 15 1.16421 15 0.75C15 0.370304 15.2824 0.0564984 15.6484 0.00683594L15.75 0H18.75Z" fill="#262626"/>
</svg>
