<svg width="23" height="23" viewBox="0 0 23 23" fill="none" xmlns="http://www.w3.org/2000/svg">
<path d="M19 0C21.0711 0 22.75 1.67893 22.75 3.75V19C22.75 21.0711 21.0711 22.75 19 22.75H3.75C1.67893 22.75 0 21.0711 0 19V3.75C0 1.67893 1.67893 0 3.75 0H19ZM3.75 1.5C2.50736 1.5 1.5 2.50736 1.5 3.75V19C1.5 20.2426 2.50736 21.25 3.75 21.25H10.9551L10.9561 14.2891H8V11.0898H10.9561V8.22949C10.9561 5.57178 12.6413 4.08894 15.1299 4.00391L15.3584 4H18V6.98926H16.1875C14.8281 6.98926 14.5167 7.56674 14.4922 8.42773L14.4912 8.54688V11.0898H17.8809L17.4395 14.2891H14.4912L14.4902 21.25H19C20.2426 21.25 21.25 20.2426 21.25 19V3.75C21.25 2.50736 20.2426 1.5 19 1.5H3.75Z" fill="#262626"/>
</svg>
