<svg width="75" height="50" viewBox="0 0 75 50" fill="none" xmlns="http://www.w3.org/2000/svg">
<rect width="75" height="50" fill="#FAFAFA" fill-opacity="0.01"/>
<path d="M35 10.25C40.3848 10.25 44.75 14.6152 44.75 20C44.75 22.4225 43.8666 24.6386 42.4043 26.3438L48.3945 32.334C48.6871 32.6269 48.6873 33.1017 48.3945 33.3945C48.1283 33.6608 47.7116 33.6846 47.418 33.4668L47.334 33.3945L41.3438 27.4043C39.6386 28.8666 37.4225 29.75 35 29.75C29.6152 29.75 25.25 25.3848 25.25 20C25.25 14.6152 29.6152 10.25 35 10.25ZM35 11.75C30.4437 11.75 26.75 15.4437 26.75 20C26.75 24.5563 30.4437 28.25 35 28.25C39.5563 28.25 43.25 24.5563 43.25 20C43.25 15.4437 39.5563 11.75 35 11.75Z" fill="#262626"/>
</svg>
