<svg width="107" height="21" viewBox="0 0 107 21" fill="none" xmlns="http://www.w3.org/2000/svg">
<path d="M105.25 17C105.664 17 106 17.3358 106 17.75C106 18.1297 105.718 18.4435 105.352 18.4932L105.25 18.5H86.25C85.8358 18.5 85.5 18.1642 85.5 17.75C85.5 17.3703 85.7824 17.0565 86.1484 17.0068L86.25 17H105.25ZM105.25 9C105.664 9 106 9.33579 106 9.75C106 10.1297 105.718 10.4435 105.352 10.4932L105.25 10.5H86.25C85.8358 10.5 85.5 10.1642 85.5 9.75C85.5 9.3703 85.7824 9.0565 86.1484 9.00684L86.25 9H105.25ZM105.25 1C105.664 1 106 1.33579 106 1.75C106 2.1297 105.718 2.4435 105.352 2.49316L105.25 2.5H86.25C85.8358 2.5 85.5 2.16421 85.5 1.75C85.5 1.3703 85.7824 1.0565 86.1484 1.00684L86.25 1H105.25Z" fill="#262626"/>
</svg>
