<svg width="24" height="24" viewBox="0 0 24 24" fill="none" xmlns="http://www.w3.org/2000/svg">
<path d="M11.75 0C18.2393 0 23.5 5.26065 23.5 11.75C23.5 18.2393 18.2393 23.5 11.75 23.5C8.38927 23.5 5.25509 22.0801 3.04199 19.6387C2.76416 19.3319 2.78731 18.8582 3.09375 18.5801C3.40064 18.3019 3.87513 18.3249 4.15332 18.6318C6.08499 20.7628 8.81714 22 11.75 22C17.4109 22 22 17.4109 22 11.75C22 6.08908 17.4109 1.5 11.75 1.5C11.3358 1.5 11 1.16421 11 0.75C11 0.335787 11.3358 1.67507e-06 11.75 0ZM1.75 14C2.44036 14 3 14.5596 3 15.25C3 15.9404 2.44036 16.5 1.75 16.5C1.05965 16.5 0.500002 15.9404 0.5 15.25C0.5 14.5596 1.05964 14 1.75 14ZM11.6689 3.03809C12.0483 3.03825 12.3623 3.31979 12.4121 3.68555L12.4189 3.78809V12.0605L8.63672 15.8428C8.34386 16.1353 7.86897 16.1354 7.57617 15.8428C7.30995 15.5765 7.28616 15.1598 7.50391 14.8662L7.57617 14.7812L10.9189 11.4395V3.78809C10.9189 3.37387 11.2547 3.03809 11.6689 3.03809ZM1.25 9C1.94036 9 2.5 9.55964 2.5 10.25C2.5 10.9404 1.94035 11.5 1.25 11.5C0.559645 11.5 1.54622e-06 10.9404 0 10.25C0 9.55964 0.559644 9 1.25 9ZM3 4C3.69036 4 4.25 4.55964 4.25 5.25C4.25 5.94035 3.69036 6.5 3 6.5C2.30964 6.5 1.75 5.94035 1.75 5.25C1.75 4.55964 2.30964 4 3 4ZM7.25 0.5C7.94036 0.5 8.5 1.05964 8.5 1.75C8.5 2.44035 7.94035 3 7.25 3C6.55965 3 6 2.44035 6 1.75C6 1.05964 6.55964 0.5 7.25 0.5Z" fill="#262626"/>
</svg>
